# xmcd
#
# Track frame offsets: 
#        150
#        10450
#        19899
#        30909
#        41095
#        51393
#        61769
#        71879
#        81972
#        91227
#        102879
#        112347
#        121789
#        138294
#        152000
#        162883
#        184693
#        198833
#        210833
#        231845
#        243477
#        259702
#        273191
#        287321
#        302417
#        312879
#        322804
#        332889
#
# Disc length: 4581 seconds
#
# Revision: 0
# Processed by: cddbd v1.5.2PL0 Copyright (c) Steve Scherf et al.
# Submitted via: ExactAudioCopy v0.99pb4
#
DISCID=7611e31c
DTITLE=The Everly Brothers - Bye Bye Love
DYEAR=2009
DGENRE=Country
TTITLE0=This Little Girl Of Mine
TTITLE1=Maybe Tomorrow
TTITLE2=Bye Bye Love
TTITLE3=Brand New Heartache
TTITLE4=Keep A Knockin'
TTITLE5=Be Bop A Lula
TTITLE6=Rip It Up
TTITLE7=I Wonder If I Care As Much
TTITLE8=Wake Up Little Susie
TTITLE9=Leave My Woman Alone
TTITLE10=Should We Tell Him?
TTITLE11=Hey Doll Baby
TTITLE12=Roving Gambler
TTITLE13=Down In The Willow Garden
TTITLE14=Long Time Gone
TTITLE15=Lightning Express
TTITLE16=That Silver Haired Daddy Of Mine
TTITLE17=Who's Gonna Shoe Your Pretty Little Feet?
TTITLE18=Barbara Allen
TTITLE19=Oh So Mony Years
TTITLE20=I'm Here To Get My Baby Out Of Jail
TTITLE21=Rockin' Alone (In An Old Rockin' Chair)
TTITLE22=Kuntucky
TTITLE23=Put My Little Shoes Away
TTITLE24=All I Have To Do Is Dream
TTITLE25=Claudette
TTITLE26=Bird Dog
TTITLE27=Devoted To You
EXTD=
EXTT0=
EXTT1=
EXTT2=
EXTT3=
EXTT4=
EXTT5=
EXTT6=
EXTT7=
EXTT8=
EXTT9=
EXTT10=
EXTT11=
EXTT12=
EXTT13=
EXTT14=
EXTT15=
EXTT16=
EXTT17=
EXTT18=
EXTT19=
EXTT20=
EXTT21=
EXTT22=
EXTT23=
EXTT24=
EXTT25=
EXTT26=
EXTT27=
PLAYORDER=
